<?xml version="1.0" encoding="utf-8"?>
<!-- Generator: Adobe Illustrator 26.2.1, SVG Export Plug-In . SVG Version: 6.00 Build 0)  -->
<svg version="1.1" id="Ebene_1" xmlns="http://www.w3.org/2000/svg" xmlns:xlink="http://www.w3.org/1999/xlink" x="0px" y="0px"
	 viewBox="0 0 200 90" style="enable-background:new 0 0 200 90;" xml:space="preserve">
<g transform="matrix(.78395345 0 0 .78395345 -3.475731 -2.680753)">
	<path d="M117.5,47.1l-19-17l-21.3,7.5L58.6,30L42,34.1l-20.8-2.5L4.4,47l0,67.8h14.6l26.1-13.2l1.9,13.2h13.5L84.8,93l0,21.8h17.3
		l15.4-16.1L117.5,47.1z"/>
	<path d="M191.4,4.3l-16.3-0.1l-14.4,15.2l-34.6,95.3l13.6,0L155,101L191.4,4.3L191.4,4.3z"/>
	<path d="M259.6,82.1l-15.6-22.4l10.6-14.8l-29.3-14.8L206,36.8l-22.1,32l8,17.3l-9.8,8.3l4,13.2l27.4,10.7l22.8-4.7l23.3-31.3
		l0,0.1L259.6,82.1z"/>
</g>
</svg>
